<?xml version="1.0" encoding="UTF-8" standalone="no"?>
<!DOCTYPE svg PUBLIC "-//W3C//DTD SVG 1.1//EN"
 "http://www.w3.org/Graphics/SVG/1.1/DTD/svg11.dtd">
<!-- Generated by graphviz version 2.42.3 (20191010.1750)
 -->
<!-- Title: Pipeline: Pages: 1 -->
<svg width="1054pt" height="658pt"
 viewBox="0.00 0.00 1054.00 658.00" xmlns="http://www.w3.org/2000/svg" xmlns:xlink="http://www.w3.org/1999/xlink">
<g id="graph0" class="graph" transform="scale(1 1) rotate(0) translate(4 654)">
<title>Pipeline:</title>
<polygon fill="white" stroke="transparent" points="-4,4 -4,-654 1050,-654 1050,4 -4,4"/>
<g id="clust1" class="cluster">
<title>clustertasks</title>
<polygon fill="none" stroke="black" points="8,-8 8,-642 922,-642 922,-8 8,-8"/>
<text text-anchor="middle" x="465" y="-614" font-family="Times,serif" font-size="30.00" fill="#ff3232">Pipeline:</text>
</g>
<g id="clust2" class="cluster">
<title>clusterkey1</title>
<polygon fill="#f6f4f4" stroke="#f6f4f4" points="930,-472 930,-636 1038,-636 1038,-472 930,-472"/>
<text text-anchor="middle" x="984" y="-616" font-family="Times,serif" font-size="20.00">Key:</text>
</g>
<!-- t1 -->
<g id="node1" class="node">
<title>t1</title>
<polygon fill="#efa03b" stroke="#006000" points="665.36,-596 268.64,-596 264.64,-592 264.64,-548 661.36,-548 665.36,-552 665.36,-596"/>
<polyline fill="none" stroke="#006000" points="661.36,-592 264.64,-592 "/>
<polyline fill="none" stroke="#006000" points="661.36,-592 661.36,-548 "/>
<polyline fill="none" stroke="#006000" points="661.36,-592 665.36,-596 "/>
<text text-anchor="middle" x="465" y="-576" font-family="Times,serif" font-size="20.00" fill="#006000">mkdir(&#39;havic_test_results/amplicon&#39;) </text>
<text text-anchor="middle" x="465" y="-556" font-family="Times,serif" font-size="20.00" fill="#006000">before havic.utils.pipeline_runner.create_outdir </text>
</g>
<!-- t0 -->
<g id="node2" class="node">
<title>t0</title>
<polygon fill="#efa03b" stroke="black" points="634.79,-519 299.21,-519 295.21,-515 295.21,-483 630.79,-483 634.79,-487 634.79,-519"/>
<polyline fill="none" stroke="black" points="630.79,-515 295.21,-515 "/>
<polyline fill="none" stroke="black" points="630.79,-515 630.79,-483 "/>
<polyline fill="none" stroke="black" points="630.79,-515 634.79,-519 "/>
<text text-anchor="middle" x="465" y="-495" font-family="Times,serif" font-size="20.00">havic.utils.pipeline_runner.create_outdir</text>
</g>
<!-- t1&#45;&gt;t0 -->
<g id="edge1" class="edge">
<title>t1&#45;&gt;t0</title>
<path fill="none" stroke="gray" d="M465,-547.64C465,-541.78 465,-535.43 465,-529.39"/>
<polygon fill="gray" stroke="gray" points="468.5,-529.01 465,-519.01 461.5,-529.01 468.5,-529.01"/>
</g>
<!-- t2 -->
<g id="node3" class="node">
<title>t2</title>
<polygon fill="#efa03b" stroke="black" points="663.58,-458 270.42,-458 266.42,-454 266.42,-422 659.58,-422 663.58,-426 663.58,-458"/>
<polyline fill="none" stroke="black" points="659.58,-454 266.42,-454 "/>
<polyline fill="none" stroke="black" points="659.58,-454 659.58,-422 "/>
<polyline fill="none" stroke="black" points="659.58,-454 663.58,-458 "/>
<text text-anchor="middle" x="465" y="-434" font-family="Times,serif" font-size="20.00">havic.utils.pipeline_runner.compile_input_fasta</text>
</g>
<!-- t0&#45;&gt;t2 -->
<g id="edge2" class="edge">
<title>t0&#45;&gt;t2</title>
<path fill="none" stroke="#0044a0" d="M465,-482.93C465,-478.45 465,-473.49 465,-468.61"/>
<polygon fill="#0044a0" stroke="#0044a0" points="468.5,-468.23 465,-458.23 461.5,-468.23 468.5,-468.23"/>
</g>
<!-- t3 -->
<g id="node4" class="node">
<title>t3</title>
<polygon fill="#efa03b" stroke="black" points="677.85,-400 256.15,-400 252.15,-396 252.15,-364 673.85,-364 677.85,-368 677.85,-400"/>
<polyline fill="none" stroke="black" points="673.85,-396 252.15,-396 "/>
<polyline fill="none" stroke="black" points="673.85,-396 673.85,-364 "/>
<polyline fill="none" stroke="black" points="673.85,-396 677.85,-400 "/>
<text text-anchor="middle" x="465" y="-376" font-family="Times,serif" font-size="20.00">havic.utils.pipeline_runner.map_input_fasta_to_ref</text>
</g>
<!-- t2&#45;&gt;t3 -->
<g id="edge3" class="edge">
<title>t2&#45;&gt;t3</title>
<path fill="none" stroke="#0044a0" d="M465,-421.89C465,-418.2 465,-414.21 465,-410.24"/>
<polygon fill="#0044a0" stroke="#0044a0" points="468.5,-410 465,-400 461.5,-410 468.5,-410"/>
</g>
<!-- t4 -->
<g id="node5" class="node">
<title>t4</title>
<polygon fill="#efa03b" stroke="black" points="623.48,-342 310.52,-342 306.52,-338 306.52,-306 619.48,-306 623.48,-310 623.48,-342"/>
<polyline fill="none" stroke="black" points="619.48,-338 306.52,-338 "/>
<polyline fill="none" stroke="black" points="619.48,-338 619.48,-306 "/>
<polyline fill="none" stroke="black" points="619.48,-338 623.48,-342 "/>
<text text-anchor="middle" x="465" y="-318" font-family="Times,serif" font-size="20.00">havic.utils.pipeline_runner.bam2fasta</text>
</g>
<!-- t3&#45;&gt;t4 -->
<g id="edge4" class="edge">
<title>t3&#45;&gt;t4</title>
<path fill="none" stroke="#0044a0" d="M465,-363.89C465,-360.2 465,-356.21 465,-352.24"/>
<polygon fill="#0044a0" stroke="#0044a0" points="468.5,-352 465,-342 461.5,-352 468.5,-352"/>
</g>
<!-- t5 -->
<g id="node6" class="node">
<title>t5</title>
<polygon fill="#efa03b" stroke="black" points="653.54,-284 280.46,-284 276.46,-280 276.46,-248 649.54,-248 653.54,-252 653.54,-284"/>
<polyline fill="none" stroke="black" points="649.54,-280 276.46,-280 "/>
<polyline fill="none" stroke="black" points="649.54,-280 649.54,-248 "/>
<polyline fill="none" stroke="black" points="649.54,-280 653.54,-284 "/>
<text text-anchor="middle" x="465" y="-260" font-family="Times,serif" font-size="20.00">havic.utils.pipeline_runner.get_cleaned_fasta</text>
</g>
<!-- t4&#45;&gt;t5 -->
<g id="edge5" class="edge">
<title>t4&#45;&gt;t5</title>
<path fill="none" stroke="#0044a0" d="M465,-305.89C465,-302.2 465,-298.21 465,-294.24"/>
<polygon fill="#0044a0" stroke="#0044a0" points="468.5,-294 465,-284 461.5,-294 468.5,-294"/>
</g>
<!-- t6 -->
<g id="node7" class="node">
<title>t6</title>
<polygon fill="#efa03b" stroke="black" points="623.48,-226 310.52,-226 306.52,-222 306.52,-190 619.48,-190 623.48,-194 623.48,-226"/>
<polyline fill="none" stroke="black" points="619.48,-222 306.52,-222 "/>
<polyline fill="none" stroke="black" points="619.48,-222 619.48,-190 "/>
<polyline fill="none" stroke="black" points="619.48,-222 623.48,-226 "/>
<text text-anchor="middle" x="465" y="-202" font-family="Times,serif" font-size="20.00">havic.utils.pipeline_runner.run_iqtree</text>
</g>
<!-- t5&#45;&gt;t6 -->
<g id="edge6" class="edge">
<title>t5&#45;&gt;t6</title>
<path fill="none" stroke="#0044a0" d="M465,-247.89C465,-244.2 465,-240.21 465,-236.24"/>
<polygon fill="#0044a0" stroke="#0044a0" points="468.5,-236 465,-226 461.5,-236 468.5,-236"/>
</g>
<!-- t7 -->
<g id="node8" class="node">
<title>t7</title>
<polygon fill="#efa03b" stroke="black" points="626.04,-168 307.96,-168 303.96,-164 303.96,-132 622.04,-132 626.04,-136 626.04,-168"/>
<polyline fill="none" stroke="black" points="622.04,-164 303.96,-164 "/>
<polyline fill="none" stroke="black" points="622.04,-164 622.04,-132 "/>
<polyline fill="none" stroke="black" points="622.04,-164 626.04,-168 "/>
<text text-anchor="middle" x="465" y="-144" font-family="Times,serif" font-size="20.00">havic.utils.pipeline_runner.root_iqtree</text>
</g>
<!-- t6&#45;&gt;t7 -->
<g id="edge7" class="edge">
<title>t6&#45;&gt;t7</title>
<path fill="none" stroke="#0044a0" d="M465,-189.89C465,-186.2 465,-182.21 465,-178.24"/>
<polygon fill="#0044a0" stroke="#0044a0" points="468.5,-178 465,-168 461.5,-178 468.5,-178"/>
</g>
<!-- t8 -->
<g id="node9" class="node">
<title>t8</title>
<polygon fill="#efa03b" stroke="black" points="787.73,-110 146.27,-110 142.27,-106 142.27,-74 783.73,-74 787.73,-78 787.73,-110"/>
<polyline fill="none" stroke="black" points="783.73,-106 142.27,-106 "/>
<polyline fill="none" stroke="black" points="783.73,-106 783.73,-74 "/>
<polyline fill="none" stroke="black" points="783.73,-106 787.73,-110 "/>
<text text-anchor="middle" x="465" y="-86" font-family="Times,serif" font-size="20.00">havic.utils.pipeline_runner.clusterpick_from_rooted_iqtree_and_cleaned_fasta</text>
</g>
<!-- t7&#45;&gt;t8 -->
<g id="edge8" class="edge">
<title>t7&#45;&gt;t8</title>
<path fill="none" stroke="#0044a0" d="M465,-131.89C465,-128.2 465,-124.21 465,-120.24"/>
<polygon fill="#0044a0" stroke="#0044a0" points="468.5,-120 465,-110 461.5,-120 468.5,-120"/>
</g>
<!-- t9 -->
<g id="node10" class="node">
<title>t9</title>
<polygon fill="#efa03b" stroke="black" points="508.03,-52 19.97,-52 15.97,-48 15.97,-16 504.03,-16 508.03,-20 508.03,-52"/>
<polyline fill="none" stroke="black" points="504.03,-48 15.97,-48 "/>
<polyline fill="none" stroke="black" points="504.03,-48 504.03,-16 "/>
<polyline fill="none" stroke="black" points="504.03,-48 508.03,-52 "/>
<text text-anchor="middle" x="262" y="-28" font-family="Times,serif" font-size="20.00">havic.utils.pipeline_runner.summarise_cluster_assignments</text>
</g>
<!-- t8&#45;&gt;t9 -->
<g id="edge9" class="edge">
<title>t8&#45;&gt;t9</title>
<path fill="none" stroke="#0044a0" d="M403.27,-73.97C381.32,-67.92 356.42,-61.05 333.71,-54.78"/>
<polygon fill="#0044a0" stroke="#0044a0" points="334.36,-51.33 323.79,-52.05 332.5,-58.08 334.36,-51.33"/>
</g>
<!-- t10 -->
<g id="node11" class="node">
<title>t10</title>
<polygon fill="#efa03b" stroke="black" points="913.59,-52 530.41,-52 526.41,-48 526.41,-16 909.59,-16 913.59,-20 913.59,-52"/>
<polyline fill="none" stroke="black" points="909.59,-48 526.41,-48 "/>
<polyline fill="none" stroke="black" points="909.59,-48 909.59,-16 "/>
<polyline fill="none" stroke="black" points="909.59,-48 913.59,-52 "/>
<text text-anchor="middle" x="720" y="-28" font-family="Times,serif" font-size="20.00">havic.utils.pipeline_runner.plot_results_ggtree</text>
</g>
<!-- t8&#45;&gt;t10 -->
<g id="edge10" class="edge">
<title>t8&#45;&gt;t10</title>
<path fill="none" stroke="#0044a0" d="M542.55,-73.97C570.98,-67.73 603.36,-60.62 632.6,-54.19"/>
<polygon fill="#0044a0" stroke="#0044a0" points="633.37,-57.61 642.38,-52.05 631.86,-50.77 633.37,-57.61"/>
</g>
<!-- k1_1 -->
<g id="node12" class="node">
<title>k1_1</title>
<polygon fill="#efa03b" stroke="#006000" points="1029.9,-600 942.1,-600 938.1,-596 938.1,-544 1025.9,-544 1029.9,-548 1029.9,-600"/>
<polyline fill="none" stroke="#006000" points="1025.9,-596 938.1,-596 "/>
<polyline fill="none" stroke="#006000" points="1025.9,-596 1025.9,-544 "/>
<polyline fill="none" stroke="#006000" points="1025.9,-596 1029.9,-600 "/>
<text text-anchor="middle" x="984" y="-574.8" font-family="Times,serif" font-size="14.00" fill="#006000">Up&#45;to&#45;date</text>
<text text-anchor="middle" x="984" y="-560.8" font-family="Times,serif" font-size="14.00" fill="#006000">Final target</text>
</g>
<!-- k2_1 -->
<g id="node13" class="node">
<title>k2_1</title>
<polygon fill="#efa03b" stroke="black" points="1029.9,-522 942.1,-522 938.1,-518 938.1,-480 1025.9,-480 1029.9,-484 1029.9,-522"/>
<polyline fill="none" stroke="black" points="1025.9,-518 938.1,-518 "/>
<polyline fill="none" stroke="black" points="1025.9,-518 1025.9,-480 "/>
<polyline fill="none" stroke="black" points="1025.9,-518 1029.9,-522 "/>
<text text-anchor="middle" x="984" y="-496.8" font-family="Times,serif" font-size="14.00">Final target</text>
</g>
<!-- k1_1&#45;&gt;k2_1 -->
<g id="edge11" class="edge">
<title>k1_1&#45;&gt;k2_1</title>
<path fill="none" stroke="gray" d="M984,-543.73C984,-540 984,-536.15 984,-532.37"/>
<polygon fill="gray" stroke="gray" points="987.5,-532.05 984,-522.05 980.5,-532.05 987.5,-532.05"/>
</g>
</g>
</svg>
